<mxfile host="app.diagrams.net" modified="2022-05-17T04:57:33.804Z" agent="5.0 (Windows NT 10.0; Win64; x64) AppleWebKit/537.36 (KHTML, like Gecko) Chrome/101.0.4951.54 Safari/537.36" etag="mrLbXaOeeytmMZ3WI9U5" version="18.0.6" type="github">
  <diagram name="Page-1" id="c4acf3e9-155e-7222-9cf6-157b1a14988f">
    <mxGraphModel dx="1422" dy="762" grid="1" gridSize="10" guides="1" tooltips="1" connect="1" arrows="1" fold="1" page="1" pageScale="1" pageWidth="850" pageHeight="1100" background="none" math="0" shadow="0">
      <root>
        <mxCell id="0" />
        <mxCell id="1" parent="0" />
        <mxCell id="6c0DKnwD4YIeOETLK1JC-1" value="FinancialPlan" style="swimlane;fontStyle=0;childLayout=stackLayout;horizontal=1;startSize=26;fillColor=none;horizontalStack=0;resizeParent=1;resizeParentMax=0;resizeLast=0;collapsible=1;marginBottom=0;" vertex="1" parent="1">
          <mxGeometry x="560" y="40" width="240" height="156" as="geometry" />
        </mxCell>
        <mxCell id="6c0DKnwD4YIeOETLK1JC-2" value="+ id: Long" style="text;strokeColor=none;fillColor=none;align=left;verticalAlign=top;spacingLeft=4;spacingRight=4;overflow=hidden;rotatable=0;points=[[0,0.5],[1,0.5]];portConstraint=eastwest;" vertex="1" parent="6c0DKnwD4YIeOETLK1JC-1">
          <mxGeometry y="26" width="240" height="26" as="geometry" />
        </mxCell>
        <mxCell id="6c0DKnwD4YIeOETLK1JC-3" value="+ name: Name" style="text;strokeColor=none;fillColor=none;align=left;verticalAlign=top;spacingLeft=4;spacingRight=4;overflow=hidden;rotatable=0;points=[[0,0.5],[1,0.5]];portConstraint=eastwest;" vertex="1" parent="6c0DKnwD4YIeOETLK1JC-1">
          <mxGeometry y="52" width="240" height="26" as="geometry" />
        </mxCell>
        <mxCell id="6c0DKnwD4YIeOETLK1JC-5" value="+ budget: MoneyAmount" style="text;strokeColor=none;fillColor=none;align=left;verticalAlign=top;spacingLeft=4;spacingRight=4;overflow=hidden;rotatable=0;points=[[0,0.5],[1,0.5]];portConstraint=eastwest;" vertex="1" parent="6c0DKnwD4YIeOETLK1JC-1">
          <mxGeometry y="78" width="240" height="26" as="geometry" />
        </mxCell>
        <mxCell id="6c0DKnwD4YIeOETLK1JC-6" value="+ regularExpenses: List&lt;RegularExpense&gt;" style="text;strokeColor=none;fillColor=none;align=left;verticalAlign=top;spacingLeft=4;spacingRight=4;overflow=hidden;rotatable=0;points=[[0,0.5],[1,0.5]];portConstraint=eastwest;" vertex="1" parent="6c0DKnwD4YIeOETLK1JC-1">
          <mxGeometry y="104" width="240" height="26" as="geometry" />
        </mxCell>
        <mxCell id="6c0DKnwD4YIeOETLK1JC-12" value="+ categories: List&lt;Category&gt;" style="text;strokeColor=none;fillColor=none;align=left;verticalAlign=top;spacingLeft=4;spacingRight=4;overflow=hidden;rotatable=0;points=[[0,0.5],[1,0.5]];portConstraint=eastwest;" vertex="1" parent="6c0DKnwD4YIeOETLK1JC-1">
          <mxGeometry y="130" width="240" height="26" as="geometry" />
        </mxCell>
        <mxCell id="6c0DKnwD4YIeOETLK1JC-40" style="edgeStyle=orthogonalEdgeStyle;rounded=0;orthogonalLoop=1;jettySize=auto;html=1;exitX=0.5;exitY=0;exitDx=0;exitDy=0;entryX=0;entryY=0.833;entryDx=0;entryDy=0;entryPerimeter=0;" edge="1" parent="1" source="6c0DKnwD4YIeOETLK1JC-13" target="6c0DKnwD4YIeOETLK1JC-19">
          <mxGeometry relative="1" as="geometry" />
        </mxCell>
        <mxCell id="6c0DKnwD4YIeOETLK1JC-45" style="edgeStyle=orthogonalEdgeStyle;rounded=0;orthogonalLoop=1;jettySize=auto;html=1;exitX=0.5;exitY=0;exitDx=0;exitDy=0;entryX=1;entryY=0.5;entryDx=0;entryDy=0;" edge="1" parent="1" source="6c0DKnwD4YIeOETLK1JC-13" target="6c0DKnwD4YIeOETLK1JC-5">
          <mxGeometry relative="1" as="geometry">
            <Array as="points">
              <mxPoint x="680" y="810" />
              <mxPoint x="910" y="810" />
              <mxPoint x="910" y="131" />
            </Array>
          </mxGeometry>
        </mxCell>
        <mxCell id="6c0DKnwD4YIeOETLK1JC-47" style="edgeStyle=orthogonalEdgeStyle;rounded=0;orthogonalLoop=1;jettySize=auto;html=1;exitX=0.5;exitY=0;exitDx=0;exitDy=0;entryX=0;entryY=0.5;entryDx=0;entryDy=0;" edge="1" parent="1" source="6c0DKnwD4YIeOETLK1JC-13" target="6c0DKnwD4YIeOETLK1JC-34">
          <mxGeometry relative="1" as="geometry">
            <Array as="points">
              <mxPoint x="680" y="810" />
              <mxPoint x="190" y="810" />
              <mxPoint x="190" y="301" />
            </Array>
          </mxGeometry>
        </mxCell>
        <mxCell id="6c0DKnwD4YIeOETLK1JC-13" value="MoneyAmount" style="swimlane;fontStyle=1;align=center;verticalAlign=top;childLayout=stackLayout;horizontal=1;startSize=26;horizontalStack=0;resizeParent=1;resizeParentMax=0;resizeLast=0;collapsible=1;marginBottom=0;" vertex="1" parent="1">
          <mxGeometry x="600" y="840" width="160" height="52" as="geometry" />
        </mxCell>
        <mxCell id="6c0DKnwD4YIeOETLK1JC-14" value="+ cents: Int" style="text;strokeColor=none;fillColor=none;align=left;verticalAlign=top;spacingLeft=4;spacingRight=4;overflow=hidden;rotatable=0;points=[[0,0.5],[1,0.5]];portConstraint=eastwest;" vertex="1" parent="6c0DKnwD4YIeOETLK1JC-13">
          <mxGeometry y="26" width="160" height="26" as="geometry" />
        </mxCell>
        <mxCell id="6c0DKnwD4YIeOETLK1JC-39" style="edgeStyle=orthogonalEdgeStyle;rounded=0;orthogonalLoop=1;jettySize=auto;html=1;exitX=0.5;exitY=0;exitDx=0;exitDy=0;entryX=0;entryY=0.625;entryDx=0;entryDy=0;entryPerimeter=0;" edge="1" parent="1" source="6c0DKnwD4YIeOETLK1JC-17" target="6c0DKnwD4YIeOETLK1JC-19">
          <mxGeometry relative="1" as="geometry" />
        </mxCell>
        <mxCell id="6c0DKnwD4YIeOETLK1JC-46" style="edgeStyle=orthogonalEdgeStyle;rounded=0;orthogonalLoop=1;jettySize=auto;html=1;exitX=0.5;exitY=0;exitDx=0;exitDy=0;entryX=0;entryY=0.5;entryDx=0;entryDy=0;" edge="1" parent="1" source="6c0DKnwD4YIeOETLK1JC-17" target="6c0DKnwD4YIeOETLK1JC-33">
          <mxGeometry relative="1" as="geometry">
            <Array as="points">
              <mxPoint x="390" y="750" />
              <mxPoint x="120" y="750" />
              <mxPoint x="120" y="275" />
            </Array>
          </mxGeometry>
        </mxCell>
        <mxCell id="6c0DKnwD4YIeOETLK1JC-48" style="edgeStyle=orthogonalEdgeStyle;rounded=0;orthogonalLoop=1;jettySize=auto;html=1;exitX=0.5;exitY=0;exitDx=0;exitDy=0;entryX=1;entryY=0.5;entryDx=0;entryDy=0;" edge="1" parent="1" source="6c0DKnwD4YIeOETLK1JC-17" target="6c0DKnwD4YIeOETLK1JC-3">
          <mxGeometry relative="1" as="geometry">
            <Array as="points">
              <mxPoint x="390" y="790" />
              <mxPoint x="950" y="790" />
              <mxPoint x="950" y="105" />
            </Array>
          </mxGeometry>
        </mxCell>
        <mxCell id="6c0DKnwD4YIeOETLK1JC-17" value="Name" style="swimlane;fontStyle=1;align=center;verticalAlign=top;childLayout=stackLayout;horizontal=1;startSize=26;horizontalStack=0;resizeParent=1;resizeParentMax=0;resizeLast=0;collapsible=1;marginBottom=0;" vertex="1" parent="1">
          <mxGeometry x="310" y="840" width="160" height="52" as="geometry" />
        </mxCell>
        <mxCell id="6c0DKnwD4YIeOETLK1JC-18" value="+ value: String" style="text;strokeColor=none;fillColor=none;align=left;verticalAlign=top;spacingLeft=4;spacingRight=4;overflow=hidden;rotatable=0;points=[[0,0.5],[1,0.5]];portConstraint=eastwest;" vertex="1" parent="6c0DKnwD4YIeOETLK1JC-17">
          <mxGeometry y="26" width="160" height="26" as="geometry" />
        </mxCell>
        <mxCell id="6c0DKnwD4YIeOETLK1JC-19" value="&lt;p style=&quot;margin:0px;margin-top:4px;text-align:center;&quot;&gt;&lt;i&gt;&amp;lt;&amp;lt;Interface&amp;gt;&amp;gt;&lt;/i&gt;&lt;br&gt;&lt;b&gt;Expense&lt;/b&gt;&lt;/p&gt;&lt;hr size=&quot;1&quot;&gt;&lt;p style=&quot;margin:0px;margin-left:4px;&quot;&gt;+ name: Name&lt;br&gt;+ amount: MoneyAmount&lt;/p&gt;&lt;p style=&quot;margin:0px;margin-left:4px;&quot;&gt;&lt;br&gt;&lt;/p&gt;" style="verticalAlign=top;align=left;overflow=fill;fontSize=12;fontFamily=Helvetica;html=1;" vertex="1" parent="1">
          <mxGeometry x="460" y="698" width="190" height="80" as="geometry" />
        </mxCell>
        <mxCell id="6c0DKnwD4YIeOETLK1JC-44" style="edgeStyle=orthogonalEdgeStyle;rounded=0;orthogonalLoop=1;jettySize=auto;html=1;exitX=0.5;exitY=0;exitDx=0;exitDy=0;entryX=1;entryY=0.5;entryDx=0;entryDy=0;" edge="1" parent="1" source="6c0DKnwD4YIeOETLK1JC-20" target="6c0DKnwD4YIeOETLK1JC-6">
          <mxGeometry relative="1" as="geometry" />
        </mxCell>
        <mxCell id="6c0DKnwD4YIeOETLK1JC-20" value="RegularExpense" style="swimlane;fontStyle=0;childLayout=stackLayout;horizontal=1;startSize=26;fillColor=none;horizontalStack=0;resizeParent=1;resizeParentMax=0;resizeLast=0;collapsible=1;marginBottom=0;" vertex="1" parent="1">
          <mxGeometry x="560" y="460" width="240" height="104" as="geometry" />
        </mxCell>
        <mxCell id="6c0DKnwD4YIeOETLK1JC-21" value="+ id: Long" style="text;strokeColor=none;fillColor=none;align=left;verticalAlign=top;spacingLeft=4;spacingRight=4;overflow=hidden;rotatable=0;points=[[0,0.5],[1,0.5]];portConstraint=eastwest;" vertex="1" parent="6c0DKnwD4YIeOETLK1JC-20">
          <mxGeometry y="26" width="240" height="26" as="geometry" />
        </mxCell>
        <mxCell id="6c0DKnwD4YIeOETLK1JC-22" value="+ name: Name" style="text;strokeColor=none;fillColor=none;align=left;verticalAlign=top;spacingLeft=4;spacingRight=4;overflow=hidden;rotatable=0;points=[[0,0.5],[1,0.5]];portConstraint=eastwest;" vertex="1" parent="6c0DKnwD4YIeOETLK1JC-20">
          <mxGeometry y="52" width="240" height="26" as="geometry" />
        </mxCell>
        <mxCell id="6c0DKnwD4YIeOETLK1JC-23" value="+ budget: MoneyAmount" style="text;strokeColor=none;fillColor=none;align=left;verticalAlign=top;spacingLeft=4;spacingRight=4;overflow=hidden;rotatable=0;points=[[0,0.5],[1,0.5]];portConstraint=eastwest;" vertex="1" parent="6c0DKnwD4YIeOETLK1JC-20">
          <mxGeometry y="78" width="240" height="26" as="geometry" />
        </mxCell>
        <mxCell id="6c0DKnwD4YIeOETLK1JC-41" style="edgeStyle=orthogonalEdgeStyle;rounded=0;orthogonalLoop=1;jettySize=auto;html=1;exitX=0.5;exitY=0;exitDx=0;exitDy=0;" edge="1" parent="1" source="6c0DKnwD4YIeOETLK1JC-26" target="6c0DKnwD4YIeOETLK1JC-35">
          <mxGeometry relative="1" as="geometry" />
        </mxCell>
        <mxCell id="6c0DKnwD4YIeOETLK1JC-26" value="IrregularExpense" style="swimlane;fontStyle=0;childLayout=stackLayout;horizontal=1;startSize=26;fillColor=none;horizontalStack=0;resizeParent=1;resizeParentMax=0;resizeLast=0;collapsible=1;marginBottom=0;" vertex="1" parent="1">
          <mxGeometry x="280" y="460" width="240" height="130" as="geometry" />
        </mxCell>
        <mxCell id="6c0DKnwD4YIeOETLK1JC-27" value="+ id: Long" style="text;strokeColor=none;fillColor=none;align=left;verticalAlign=top;spacingLeft=4;spacingRight=4;overflow=hidden;rotatable=0;points=[[0,0.5],[1,0.5]];portConstraint=eastwest;" vertex="1" parent="6c0DKnwD4YIeOETLK1JC-26">
          <mxGeometry y="26" width="240" height="26" as="geometry" />
        </mxCell>
        <mxCell id="6c0DKnwD4YIeOETLK1JC-28" value="+ name: Name" style="text;strokeColor=none;fillColor=none;align=left;verticalAlign=top;spacingLeft=4;spacingRight=4;overflow=hidden;rotatable=0;points=[[0,0.5],[1,0.5]];portConstraint=eastwest;" vertex="1" parent="6c0DKnwD4YIeOETLK1JC-26">
          <mxGeometry y="52" width="240" height="26" as="geometry" />
        </mxCell>
        <mxCell id="6c0DKnwD4YIeOETLK1JC-30" value="+ budget: MoneyAmount" style="text;strokeColor=none;fillColor=none;align=left;verticalAlign=top;spacingLeft=4;spacingRight=4;overflow=hidden;rotatable=0;points=[[0,0.5],[1,0.5]];portConstraint=eastwest;" vertex="1" parent="6c0DKnwD4YIeOETLK1JC-26">
          <mxGeometry y="78" width="240" height="26" as="geometry" />
        </mxCell>
        <mxCell id="6c0DKnwD4YIeOETLK1JC-29" value="+ date: Date" style="text;strokeColor=none;fillColor=none;align=left;verticalAlign=top;spacingLeft=4;spacingRight=4;overflow=hidden;rotatable=0;points=[[0,0.5],[1,0.5]];portConstraint=eastwest;" vertex="1" parent="6c0DKnwD4YIeOETLK1JC-26">
          <mxGeometry y="104" width="240" height="26" as="geometry" />
        </mxCell>
        <mxCell id="6c0DKnwD4YIeOETLK1JC-43" style="edgeStyle=orthogonalEdgeStyle;rounded=0;orthogonalLoop=1;jettySize=auto;html=1;exitX=0.5;exitY=0;exitDx=0;exitDy=0;entryX=0;entryY=0.5;entryDx=0;entryDy=0;" edge="1" parent="1" source="6c0DKnwD4YIeOETLK1JC-31" target="6c0DKnwD4YIeOETLK1JC-12">
          <mxGeometry relative="1" as="geometry" />
        </mxCell>
        <mxCell id="6c0DKnwD4YIeOETLK1JC-31" value="Category" style="swimlane;fontStyle=0;childLayout=stackLayout;horizontal=1;startSize=26;fillColor=none;horizontalStack=0;resizeParent=1;resizeParentMax=0;resizeLast=0;collapsible=1;marginBottom=0;" vertex="1" parent="1">
          <mxGeometry x="270" y="210" width="240" height="130" as="geometry" />
        </mxCell>
        <mxCell id="6c0DKnwD4YIeOETLK1JC-32" value="+ id: Long" style="text;strokeColor=none;fillColor=none;align=left;verticalAlign=top;spacingLeft=4;spacingRight=4;overflow=hidden;rotatable=0;points=[[0,0.5],[1,0.5]];portConstraint=eastwest;" vertex="1" parent="6c0DKnwD4YIeOETLK1JC-31">
          <mxGeometry y="26" width="240" height="26" as="geometry" />
        </mxCell>
        <mxCell id="6c0DKnwD4YIeOETLK1JC-33" value="+ name: Name" style="text;strokeColor=none;fillColor=none;align=left;verticalAlign=top;spacingLeft=4;spacingRight=4;overflow=hidden;rotatable=0;points=[[0,0.5],[1,0.5]];portConstraint=eastwest;" vertex="1" parent="6c0DKnwD4YIeOETLK1JC-31">
          <mxGeometry y="52" width="240" height="26" as="geometry" />
        </mxCell>
        <mxCell id="6c0DKnwD4YIeOETLK1JC-34" value="+ budget: MoneyAmount" style="text;strokeColor=none;fillColor=none;align=left;verticalAlign=top;spacingLeft=4;spacingRight=4;overflow=hidden;rotatable=0;points=[[0,0.5],[1,0.5]];portConstraint=eastwest;" vertex="1" parent="6c0DKnwD4YIeOETLK1JC-31">
          <mxGeometry y="78" width="240" height="26" as="geometry" />
        </mxCell>
        <mxCell id="6c0DKnwD4YIeOETLK1JC-35" value="+ expenses: List&lt;IrregularExpenses&gt;" style="text;strokeColor=none;fillColor=none;align=left;verticalAlign=top;spacingLeft=4;spacingRight=4;overflow=hidden;rotatable=0;points=[[0,0.5],[1,0.5]];portConstraint=eastwest;" vertex="1" parent="6c0DKnwD4YIeOETLK1JC-31">
          <mxGeometry y="104" width="240" height="26" as="geometry" />
        </mxCell>
        <mxCell id="6c0DKnwD4YIeOETLK1JC-36" value="" style="endArrow=block;dashed=1;endFill=0;endSize=12;html=1;rounded=0;exitX=0.5;exitY=0;exitDx=0;exitDy=0;" edge="1" parent="1" source="6c0DKnwD4YIeOETLK1JC-19" target="6c0DKnwD4YIeOETLK1JC-23">
          <mxGeometry width="160" relative="1" as="geometry">
            <mxPoint x="580" y="618" as="sourcePoint" />
            <mxPoint x="740" y="618" as="targetPoint" />
            <Array as="points">
              <mxPoint x="555" y="638" />
              <mxPoint x="680" y="638" />
            </Array>
          </mxGeometry>
        </mxCell>
        <mxCell id="6c0DKnwD4YIeOETLK1JC-38" value="" style="endArrow=block;dashed=1;endFill=0;endSize=12;html=1;rounded=0;exitX=0.5;exitY=0;exitDx=0;exitDy=0;" edge="1" parent="1" source="6c0DKnwD4YIeOETLK1JC-19">
          <mxGeometry width="160" relative="1" as="geometry">
            <mxPoint x="595" y="708" as="sourcePoint" />
            <mxPoint x="400" y="588" as="targetPoint" />
            <Array as="points">
              <mxPoint x="555" y="638" />
              <mxPoint x="400" y="638" />
            </Array>
          </mxGeometry>
        </mxCell>
      </root>
    </mxGraphModel>
  </diagram>
</mxfile>
